<svg width="110" height="110" viewBox="0 0 110 110" fill="none" xmlns="http://www.w3.org/2000/svg">
<path d="M108.625 55.0022C108.625 84.6186 84.6163 108.627 55 108.627C25.3837 108.627 1.375 84.6186 1.375 55.0022C1.375 25.3858 25.3837 1.37695 55 1.37695C84.6163 1.37695 108.625 25.3858 108.625 55.0022Z" fill="white" stroke="#135CB7" stroke-width="2.75"/>
<path d="M85.3777 31.8103L85.3777 31.8111C85.376 32.1145 85.2555 32.4052 85.0419 32.6207L85.0415 32.6211L71.8088 45.8537C72.0245 48.0962 73.9061 49.8159 76.1658 49.8229L76.1746 49.8229L76.1746 49.8232C76.257 49.8287 76.3383 49.8434 76.4173 49.8669C76.4964 49.8433 76.5779 49.8286 76.6604 49.8232L76.6694 49.8226L76.6694 49.8229L84.2319 49.8229L84.2344 49.8229C84.3718 49.8253 84.5076 49.8528 84.6352 49.9039L84.6362 49.9043C84.6729 49.9193 84.709 49.9363 84.7443 49.9555C84.9723 50.0723 85.1562 50.26 85.2683 50.4904C85.27 50.4929 85.2728 50.497 85.2757 50.5016C85.278 50.5054 85.2807 50.5101 85.2835 50.5156L85.2873 50.5221L85.2913 50.5323C85.3397 50.6548 85.3664 50.7848 85.3701 50.9166C85.3711 50.9203 85.3724 50.9252 85.3736 50.9305C85.3757 50.9402 85.3777 50.9533 85.3777 50.9688L85.3777 57.0188C85.3777 57.3227 85.2569 57.6141 85.0421 57.8289L78.9944 63.8766L78.9921 63.879L58.8449 85.0339L58.8353 85.044L58.8239 85.052L85.3777 31.8103ZM85.3777 31.8103L85.3777 25.7603C85.3777 25.7448 85.3757 25.7317 85.3736 25.722C85.3724 25.7167 85.3711 25.7118 85.3701 25.7081C85.3664 25.5763 85.3397 25.4463 85.2913 25.3237L85.2873 25.3136L85.2835 25.307C85.2807 25.3016 85.278 25.2969 85.2757 25.2931C85.273 25.2888 85.2704 25.2849 85.2686 25.2824C85.2177 25.1731 85.1495 25.0728 85.0668 24.9851L85.0669 24.985L85.064 24.9822C85.0369 24.9551 85.0085 24.9293 84.9786 24.905C84.9074 24.8426 84.8284 24.7893 84.7436 24.7466C84.7088 24.7279 84.6728 24.7108 84.6357 24.6957L84.6357 24.6957L84.6351 24.6954C84.5075 24.6443 84.3717 24.6169 84.2342 24.6145L84.2342 24.6145L84.2318 24.6145L51.9652 24.6145L51.9652 24.6145C51.6613 24.6146 51.37 24.7353 51.1551 24.9501L24.9388 51.1666L24.9337 51.1716L24.9313 51.1746L85.3777 31.8103ZM58.5144 85.2667C58.6286 85.2127 58.7332 85.1402 58.8238 85.0521L24.7402 84.2439C24.7402 84.8009 25.1916 85.2522 25.7485 85.2522L58.0152 85.2522C58.1512 85.2522 58.2857 85.2246 58.4107 85.1709L58.4646 85.2974C58.4647 85.2974 58.4648 85.2974 58.465 85.2973C58.4791 85.2912 58.4904 85.2842 58.4984 85.2787C58.5053 85.2739 58.5113 85.2692 58.5144 85.2667ZM85.2724 25.2905L85.2719 25.2894L85.2724 25.2905ZM85.2725 50.4991L85.2708 50.4957L85.2724 50.4991L85.2725 50.4991ZM50.4527 79.3397L56.8694 79.3397L56.8694 83.098L26.8944 83.098L26.8944 79.3397L33.3111 79.3397L33.3113 79.3397C37.0052 79.3355 39.9985 76.342 40.0029 72.6481L40.0029 72.648L40.0029 63.5729L40.0029 63.5728C39.9986 59.8789 37.0052 56.8855 33.3113 56.8812L33.3111 56.8812L26.8944 56.8812L26.8944 53.1229L56.8694 53.1229L56.8694 56.8812L50.4527 56.8812L50.4526 56.8812C46.7587 56.8854 43.7654 59.8789 43.761 63.5728L43.761 63.5729L43.761 72.648L43.761 72.6481C43.7653 76.342 46.7587 79.3354 50.4526 79.3397L50.4527 79.3397ZM78.9944 57.8265L83.0861 53.7349L83.086 56.5443L77.354 62.2763L77.354 62.2763L77.3516 62.2787L59.161 81.379L59.161 78.652L78.992 57.8289L78.9944 57.8265ZM76.165 52.1146L76.165 52.1149L76.1743 52.1143C76.2568 52.1088 76.3383 52.0941 76.4174 52.0705C76.4963 52.094 76.5777 52.1087 76.6601 52.1143L76.6601 52.1146L76.6693 52.1146L81.4657 52.1146L77.354 56.2263L77.354 56.2263L77.3516 56.2287L57.5239 77.048L50.4529 77.048C48.0239 77.0454 46.0554 75.0769 46.0527 72.6478L46.0527 63.5731C46.0554 61.144 48.0239 59.1755 50.4529 59.1729L58.0152 59.1729L58.0157 59.1729C58.3193 59.172 58.6103 59.0514 58.8255 58.8371L58.8257 58.8369L69.9011 47.7614C70.875 50.3683 73.3669 52.11 76.165 52.1146ZM69.8091 44.6128L69.809 44.613L59.161 55.261L59.161 52.4515L83.086 28.5264L83.086 31.3358L69.8097 44.6122L69.8096 44.6124L69.8091 44.6128ZM52.4397 26.9062L81.4657 26.9062L57.5407 50.8313L28.5147 50.8313L52.4397 26.9062ZM33.3109 77.048L28.5147 77.048L37.711 67.8516L37.711 72.6478C37.7084 75.0769 35.7399 77.0454 33.3109 77.048Z" fill="#135CB7" stroke="#135CB7" stroke-width="0.275"/>
<path d="M50.7649 73.099L50.7649 73.099L50.7649 73.1002C50.7649 73.5505 50.4 73.9154 49.9497 73.9154C49.5 73.9154 49.1353 73.5512 49.1345 73.1016C49.138 72.8843 49.2229 72.6764 49.3723 72.5189C49.6055 72.2848 49.9571 72.2146 50.2624 72.3414C50.5683 72.4683 50.7669 72.7677 50.7649 73.099Z" fill="#135CB7" stroke="#135CB7" stroke-width="0.386212"/>
<path d="M53.39 68.3168L53.39 68.3168C53.5911 68.106 53.8894 68.0185 54.1725 68.0873C54.4556 68.1561 54.6804 68.3707 54.7624 68.6501C54.8444 68.9296 54.771 69.2317 54.5699 69.4425L53.5619 70.4988C53.5619 70.4988 53.5618 70.4989 53.5618 70.499C53.2507 70.8232 52.7358 70.8346 52.4105 70.5244C52.0853 70.2141 52.0725 69.6992 52.3819 69.3732C52.3819 69.3732 52.382 69.3731 52.382 69.3731L53.39 68.3168Z" fill="#135CB7" stroke="#135CB7" stroke-width="0.386212"/>
<path d="M57.4308 64.0882L56.4225 65.1448C56.1116 65.4706 56.1237 65.9868 56.4495 66.2977C56.7753 66.6086 57.2915 66.5964 57.6024 66.2706L57.7421 66.404L57.6024 66.2706L58.6107 65.214C58.9215 64.8882 58.9094 64.3721 58.5836 64.0612L57.4308 64.0882ZM57.4308 64.0882L57.2922 63.956M57.4308 64.0882L57.2922 63.956M57.2922 63.956L57.4308 64.0882M57.2922 63.956L57.4308 64.0882M57.4308 64.0882C57.7416 63.7624 58.2577 63.7503 58.5836 64.0611L57.4308 64.0882Z" fill="#135CB7" stroke="#135CB7" stroke-width="0.386212"/>
<path d="M61.4582 59.8636L61.4582 59.8636L60.4499 60.9202L60.3102 60.7869L60.4499 60.9202C60.2246 61.1563 60.1617 61.504 60.2901 61.8039C60.4185 62.1039 60.7134 62.2984 61.0398 62.2983L61.0401 62.2983C61.2629 62.2986 61.4761 62.2074 61.6297 62.0461L61.6298 62.0459L62.6381 60.9893C62.949 60.6635 62.9369 60.1473 62.6111 59.8364L61.4582 59.8636ZM61.4582 59.8636C61.7691 59.5378 62.2853 59.5257 62.6111 59.8364L61.4582 59.8636Z" fill="#135CB7" stroke="#135CB7" stroke-width="0.386212"/>
<path d="M66.2749 55.4074L66.2749 55.4074C66.5586 55.4761 66.7838 55.6911 66.8657 55.9711C66.9475 56.2512 66.8736 56.5536 66.6716 56.7643L66.6713 56.7646L65.663 57.8212L65.6629 57.8214C65.5093 57.9827 65.2961 58.0739 65.0733 58.0736L65.073 58.0736C64.7466 58.0737 64.4517 57.8792 64.3233 57.5793C64.195 57.2793 64.2578 56.9316 64.4831 56.6955L64.3443 56.5631L64.4831 56.6955L65.4914 55.6389L65.4917 55.6386C65.6927 55.4269 65.9914 55.3388 66.2749 55.4074Z" fill="#135CB7" stroke="#135CB7" stroke-width="0.386212"/>
<path d="M68.7994 52.2731L68.7994 52.2731C69.1049 52.1462 69.4567 52.2165 69.69 52.451C69.8407 52.6076 69.9257 52.8161 69.9274 53.0334L69.9274 53.0352C69.931 53.2473 69.8464 53.4516 69.6938 53.5991L69.6938 53.599L69.6901 53.6027C69.5378 53.7581 69.3296 53.8461 69.1121 53.8471C68.8944 53.8461 68.6863 53.7582 68.5341 53.6028L68.5341 53.6027L68.5302 53.599C68.3775 53.4516 68.293 53.2475 68.2967 53.0353L68.2968 53.0353L68.2968 53.0308C68.2949 52.6995 68.4935 52.4 68.7994 52.2731Z" fill="#135CB7" stroke="#135CB7" stroke-width="0.386212"/>
</svg>
