<svg width="110" height="110" viewBox="0 0 110 110" fill="none" xmlns="http://www.w3.org/2000/svg">
<path d="M108.625 55.0022C108.625 84.6186 84.6163 108.627 55 108.627C25.3837 108.627 1.375 84.6186 1.375 55.0022C1.375 25.3858 25.3837 1.37695 55 1.37695C84.6163 1.37695 108.625 25.3858 108.625 55.0022Z" fill="white" stroke="#135CB7" stroke-width="2.75"/>
<path d="M108.634 54.9999C108.634 84.6214 84.6215 108.634 55 108.634C25.3785 108.634 1.3655 84.6214 1.3655 54.9999C1.36549 25.3785 25.3785 1.36549 55 1.36549C84.6215 1.36549 108.634 25.3784 108.634 54.9999Z" fill="white" stroke="#135CB7" stroke-width="2.73099"/>
<mask id="path-3-inside-1_601_395" fill="white">
<path fill-rule="evenodd" clip-rule="evenodd" d="M47.2147 43.057L52.7366 43.057C53.3987 43.057 53.9353 42.528 53.9353 41.8754L53.9353 36.4228C53.9353 35.7702 53.3987 35.2412 52.7366 35.2412L47.2147 35.2412C46.5527 35.2412 46.0161 35.7702 46.0161 36.4228L46.0161 41.8754C46.0161 42.528 46.5527 43.057 47.2147 43.057ZM48.4134 37.6046L51.538 37.6046L51.538 40.6939L48.4134 40.6939L48.4134 37.6046Z"/>
<path fill-rule="evenodd" clip-rule="evenodd" d="M58.0898 43.057L63.6118 43.057C64.2738 43.057 64.8104 42.528 64.8104 41.8754L64.8104 36.4228C64.8104 35.7702 64.2738 35.2412 63.6118 35.2412L58.0898 35.2412C57.4278 35.2412 56.8912 35.7702 56.8912 36.4228L56.8912 41.8754C56.8912 42.528 57.4278 43.057 58.0898 43.057ZM59.2885 37.6046L62.4131 37.6046L62.4131 40.6939L59.2885 40.6939L59.2885 37.6046Z"/>
<path fill-rule="evenodd" clip-rule="evenodd" d="M63.6118 55.0587L58.0898 55.0587C57.4278 55.0587 56.8912 54.5295 56.8912 53.877L56.8912 48.4246C56.8912 47.772 57.4278 47.2429 58.0898 47.2429L63.6118 47.2429C64.2738 47.2429 64.8104 47.772 64.8104 48.4246L64.8104 53.877C64.8104 54.5296 64.2738 55.0587 63.6118 55.0587ZM62.4131 49.6061L59.2885 49.6061L59.2885 52.6953L62.4131 52.6953L62.4131 49.6061Z"/>
<path fill-rule="evenodd" clip-rule="evenodd" d="M47.2147 55.0587L52.7366 55.0587C53.3987 55.0587 53.9353 54.5296 53.9353 53.877L53.9353 48.4246C53.9353 47.772 53.3987 47.2429 52.7366 47.2429L47.2147 47.2429C46.5527 47.2429 46.0161 47.772 46.0161 48.4246L46.0161 53.877C46.0161 54.5295 46.5527 55.0587 47.2147 55.0587ZM48.4134 49.6061L51.538 49.6061L51.538 52.6953L48.4134 52.6953L48.4134 49.6061Z"/>
<path fill-rule="evenodd" clip-rule="evenodd" d="M63.6118 67.0605L58.0898 67.0605C57.4278 67.0605 56.8912 66.5315 56.8912 65.8789L56.8912 60.4263C56.8912 59.7737 57.4278 59.2447 58.0898 59.2447L63.6118 59.2447C64.2738 59.2447 64.8104 59.7737 64.8104 60.4263L64.8104 65.8789C64.8104 66.5315 64.2738 67.0605 63.6118 67.0605ZM62.4131 61.6081L59.2885 61.6081L59.2885 64.6974L62.4131 64.6974L62.4131 61.6081Z"/>
<path fill-rule="evenodd" clip-rule="evenodd" d="M52.7366 67.0605C53.3987 67.0605 53.9353 66.5315 53.9353 65.8789L53.9353 60.4263C53.9353 59.7737 53.3987 59.2447 52.7366 59.2447L47.2147 59.2447C46.5527 59.2447 46.0161 59.7737 46.0161 60.4263L46.0161 65.8789C46.0161 66.5315 46.5527 67.0605 47.2147 67.0605L52.7366 67.0605ZM48.4134 61.6081L51.538 61.6081L51.538 64.6974L48.4134 64.6974L48.4134 61.6081Z"/>
<path fill-rule="evenodd" clip-rule="evenodd" d="M78.7923 81.5214L79.9068 81.5214C80.5688 81.5214 81.1054 82.0505 81.1054 82.7031C81.1054 83.3557 80.5688 83.8847 79.9068 83.8847L30.0541 83.8847C29.3921 83.8847 28.8555 83.3557 28.8555 82.7031C28.8555 82.0505 29.3921 81.5214 30.0541 81.5214L33.2669 81.5214L33.2669 53.9205C33.2669 53.2678 33.8036 52.7388 34.4656 52.7388L41.0425 52.7388L41.0425 29.9969C41.0425 29.3442 41.5791 28.8152 42.2411 28.8152L44.7949 28.8152L44.7949 24.5664C44.7949 23.9138 45.3315 23.3848 45.9936 23.3848L64.8328 23.3848C65.4948 23.3848 66.0315 23.9138 66.0315 24.5664L66.0315 28.8152L68.5854 28.8152C69.2474 28.8152 69.784 29.3442 69.784 29.9969L69.784 44.6481L77.5936 44.6481C78.2556 44.6481 78.7923 45.1772 78.7923 45.8298L78.7923 81.5214ZM63.634 25.748L47.1922 25.748L47.1922 28.8152L63.634 28.8152L63.634 25.748ZM41.0425 55.1021L35.6643 55.1021L35.6643 81.5214L41.0425 81.5214L41.0425 55.1021ZM67.3867 31.1785L43.4398 31.1785L43.4398 81.5214L49.4066 81.5214L49.4066 73.7252C49.4066 73.0726 49.9433 72.5436 50.6053 72.5436L60.221 72.5436C60.8831 72.5436 61.4197 73.0726 61.4197 73.7252L61.4197 81.5214L67.3867 81.5214L67.3867 31.1785ZM51.8041 74.9068L51.8041 81.5214L59.0225 81.5214L59.0225 74.9068L51.8041 74.9068ZM69.784 47.0114L69.784 81.5214L76.3949 81.5214L76.3949 47.0114L69.784 47.0114Z"/>
</mask>
<path fill-rule="evenodd" clip-rule="evenodd" d="M47.2147 43.057L52.7366 43.057C53.3987 43.057 53.9353 42.528 53.9353 41.8754L53.9353 36.4228C53.9353 35.7702 53.3987 35.2412 52.7366 35.2412L47.2147 35.2412C46.5527 35.2412 46.0161 35.7702 46.0161 36.4228L46.0161 41.8754C46.0161 42.528 46.5527 43.057 47.2147 43.057ZM48.4134 37.6046L51.538 37.6046L51.538 40.6939L48.4134 40.6939L48.4134 37.6046Z" fill="#135CB7"/>
<path fill-rule="evenodd" clip-rule="evenodd" d="M58.0898 43.057L63.6118 43.057C64.2738 43.057 64.8104 42.528 64.8104 41.8754L64.8104 36.4228C64.8104 35.7702 64.2738 35.2412 63.6118 35.2412L58.0898 35.2412C57.4278 35.2412 56.8912 35.7702 56.8912 36.4228L56.8912 41.8754C56.8912 42.528 57.4278 43.057 58.0898 43.057ZM59.2885 37.6046L62.4131 37.6046L62.4131 40.6939L59.2885 40.6939L59.2885 37.6046Z" fill="#135CB7"/>
<path fill-rule="evenodd" clip-rule="evenodd" d="M63.6118 55.0587L58.0898 55.0587C57.4278 55.0587 56.8912 54.5295 56.8912 53.877L56.8912 48.4246C56.8912 47.772 57.4278 47.2429 58.0898 47.2429L63.6118 47.2429C64.2738 47.2429 64.8104 47.772 64.8104 48.4246L64.8104 53.877C64.8104 54.5296 64.2738 55.0587 63.6118 55.0587ZM62.4131 49.6061L59.2885 49.6061L59.2885 52.6953L62.4131 52.6953L62.4131 49.6061Z" fill="#135CB7"/>
<path fill-rule="evenodd" clip-rule="evenodd" d="M47.2147 55.0587L52.7366 55.0587C53.3987 55.0587 53.9353 54.5296 53.9353 53.877L53.9353 48.4246C53.9353 47.772 53.3987 47.2429 52.7366 47.2429L47.2147 47.2429C46.5527 47.2429 46.0161 47.772 46.0161 48.4246L46.0161 53.877C46.0161 54.5295 46.5527 55.0587 47.2147 55.0587ZM48.4134 49.6061L51.538 49.6061L51.538 52.6953L48.4134 52.6953L48.4134 49.6061Z" fill="#135CB7"/>
<path fill-rule="evenodd" clip-rule="evenodd" d="M63.6118 67.0605L58.0898 67.0605C57.4278 67.0605 56.8912 66.5315 56.8912 65.8789L56.8912 60.4263C56.8912 59.7737 57.4278 59.2447 58.0898 59.2447L63.6118 59.2447C64.2738 59.2447 64.8104 59.7737 64.8104 60.4263L64.8104 65.8789C64.8104 66.5315 64.2738 67.0605 63.6118 67.0605ZM62.4131 61.6081L59.2885 61.6081L59.2885 64.6974L62.4131 64.6974L62.4131 61.6081Z" fill="#135CB7"/>
<path fill-rule="evenodd" clip-rule="evenodd" d="M52.7366 67.0605C53.3987 67.0605 53.9353 66.5315 53.9353 65.8789L53.9353 60.4263C53.9353 59.7737 53.3987 59.2447 52.7366 59.2447L47.2147 59.2447C46.5527 59.2447 46.0161 59.7737 46.0161 60.4263L46.0161 65.8789C46.0161 66.5315 46.5527 67.0605 47.2147 67.0605L52.7366 67.0605ZM48.4134 61.6081L51.538 61.6081L51.538 64.6974L48.4134 64.6974L48.4134 61.6081Z" fill="#135CB7"/>
<path fill-rule="evenodd" clip-rule="evenodd" d="M78.7923 81.5214L79.9068 81.5214C80.5688 81.5214 81.1054 82.0505 81.1054 82.7031C81.1054 83.3557 80.5688 83.8847 79.9068 83.8847L30.0541 83.8847C29.3921 83.8847 28.8555 83.3557 28.8555 82.7031C28.8555 82.0505 29.3921 81.5214 30.0541 81.5214L33.2669 81.5214L33.2669 53.9205C33.2669 53.2678 33.8036 52.7388 34.4656 52.7388L41.0425 52.7388L41.0425 29.9969C41.0425 29.3442 41.5791 28.8152 42.2411 28.8152L44.7949 28.8152L44.7949 24.5664C44.7949 23.9138 45.3315 23.3848 45.9936 23.3848L64.8328 23.3848C65.4948 23.3848 66.0315 23.9138 66.0315 24.5664L66.0315 28.8152L68.5854 28.8152C69.2474 28.8152 69.784 29.3442 69.784 29.9969L69.784 44.6481L77.5936 44.6481C78.2556 44.6481 78.7923 45.1772 78.7923 45.8298L78.7923 81.5214ZM63.634 25.748L47.1922 25.748L47.1922 28.8152L63.634 28.8152L63.634 25.748ZM41.0425 55.1021L35.6643 55.1021L35.6643 81.5214L41.0425 81.5214L41.0425 55.1021ZM67.3867 31.1785L43.4398 31.1785L43.4398 81.5214L49.4066 81.5214L49.4066 73.7252C49.4066 73.0726 49.9433 72.5436 50.6053 72.5436L60.221 72.5436C60.8831 72.5436 61.4197 73.0726 61.4197 73.7252L61.4197 81.5214L67.3867 81.5214L67.3867 31.1785ZM51.8041 74.9068L51.8041 81.5214L59.0225 81.5214L59.0225 74.9068L51.8041 74.9068ZM69.784 47.0114L69.784 81.5214L76.3949 81.5214L76.3949 47.0114L69.784 47.0114Z" fill="#135CB7"/>
<path fill-rule="evenodd" clip-rule="evenodd" d="M47.2147 43.057L52.7366 43.057C53.3987 43.057 53.9353 42.528 53.9353 41.8754L53.9353 36.4228C53.9353 35.7702 53.3987 35.2412 52.7366 35.2412L47.2147 35.2412C46.5527 35.2412 46.0161 35.7702 46.0161 36.4228L46.0161 41.8754C46.0161 42.528 46.5527 43.057 47.2147 43.057ZM48.4134 37.6046L51.538 37.6046L51.538 40.6939L48.4134 40.6939L48.4134 37.6046Z" stroke="#135CB7" stroke-width="0.716504" mask="url(#path-3-inside-1_601_395)"/>
<path fill-rule="evenodd" clip-rule="evenodd" d="M58.0898 43.057L63.6118 43.057C64.2738 43.057 64.8104 42.528 64.8104 41.8754L64.8104 36.4228C64.8104 35.7702 64.2738 35.2412 63.6118 35.2412L58.0898 35.2412C57.4278 35.2412 56.8912 35.7702 56.8912 36.4228L56.8912 41.8754C56.8912 42.528 57.4278 43.057 58.0898 43.057ZM59.2885 37.6046L62.4131 37.6046L62.4131 40.6939L59.2885 40.6939L59.2885 37.6046Z" stroke="#135CB7" stroke-width="0.716504" mask="url(#path-3-inside-1_601_395)"/>
<path fill-rule="evenodd" clip-rule="evenodd" d="M63.6118 55.0587L58.0898 55.0587C57.4278 55.0587 56.8912 54.5295 56.8912 53.877L56.8912 48.4246C56.8912 47.772 57.4278 47.2429 58.0898 47.2429L63.6118 47.2429C64.2738 47.2429 64.8104 47.772 64.8104 48.4246L64.8104 53.877C64.8104 54.5296 64.2738 55.0587 63.6118 55.0587ZM62.4131 49.6061L59.2885 49.6061L59.2885 52.6953L62.4131 52.6953L62.4131 49.6061Z" stroke="#135CB7" stroke-width="0.716504" mask="url(#path-3-inside-1_601_395)"/>
<path fill-rule="evenodd" clip-rule="evenodd" d="M47.2147 55.0587L52.7366 55.0587C53.3987 55.0587 53.9353 54.5296 53.9353 53.877L53.9353 48.4246C53.9353 47.772 53.3987 47.2429 52.7366 47.2429L47.2147 47.2429C46.5527 47.2429 46.0161 47.772 46.0161 48.4246L46.0161 53.877C46.0161 54.5295 46.5527 55.0587 47.2147 55.0587ZM48.4134 49.6061L51.538 49.6061L51.538 52.6953L48.4134 52.6953L48.4134 49.6061Z" stroke="#135CB7" stroke-width="0.716504" mask="url(#path-3-inside-1_601_395)"/>
<path fill-rule="evenodd" clip-rule="evenodd" d="M63.6118 67.0605L58.0898 67.0605C57.4278 67.0605 56.8912 66.5315 56.8912 65.8789L56.8912 60.4263C56.8912 59.7737 57.4278 59.2447 58.0898 59.2447L63.6118 59.2447C64.2738 59.2447 64.8104 59.7737 64.8104 60.4263L64.8104 65.8789C64.8104 66.5315 64.2738 67.0605 63.6118 67.0605ZM62.4131 61.6081L59.2885 61.6081L59.2885 64.6974L62.4131 64.6974L62.4131 61.6081Z" stroke="#135CB7" stroke-width="0.716504" mask="url(#path-3-inside-1_601_395)"/>
<path fill-rule="evenodd" clip-rule="evenodd" d="M52.7366 67.0605C53.3987 67.0605 53.9353 66.5315 53.9353 65.8789L53.9353 60.4263C53.9353 59.7737 53.3987 59.2447 52.7366 59.2447L47.2147 59.2447C46.5527 59.2447 46.0161 59.7737 46.0161 60.4263L46.0161 65.8789C46.0161 66.5315 46.5527 67.0605 47.2147 67.0605L52.7366 67.0605ZM48.4134 61.6081L51.538 61.6081L51.538 64.6974L48.4134 64.6974L48.4134 61.6081Z" stroke="#135CB7" stroke-width="0.716504" mask="url(#path-3-inside-1_601_395)"/>
<path fill-rule="evenodd" clip-rule="evenodd" d="M78.7923 81.5214L79.9068 81.5214C80.5688 81.5214 81.1054 82.0505 81.1054 82.7031C81.1054 83.3557 80.5688 83.8847 79.9068 83.8847L30.0541 83.8847C29.3921 83.8847 28.8555 83.3557 28.8555 82.7031C28.8555 82.0505 29.3921 81.5214 30.0541 81.5214L33.2669 81.5214L33.2669 53.9205C33.2669 53.2678 33.8036 52.7388 34.4656 52.7388L41.0425 52.7388L41.0425 29.9969C41.0425 29.3442 41.5791 28.8152 42.2411 28.8152L44.7949 28.8152L44.7949 24.5664C44.7949 23.9138 45.3315 23.3848 45.9936 23.3848L64.8328 23.3848C65.4948 23.3848 66.0315 23.9138 66.0315 24.5664L66.0315 28.8152L68.5854 28.8152C69.2474 28.8152 69.784 29.3442 69.784 29.9969L69.784 44.6481L77.5936 44.6481C78.2556 44.6481 78.7923 45.1772 78.7923 45.8298L78.7923 81.5214ZM63.634 25.748L47.1922 25.748L47.1922 28.8152L63.634 28.8152L63.634 25.748ZM41.0425 55.1021L35.6643 55.1021L35.6643 81.5214L41.0425 81.5214L41.0425 55.1021ZM67.3867 31.1785L43.4398 31.1785L43.4398 81.5214L49.4066 81.5214L49.4066 73.7252C49.4066 73.0726 49.9433 72.5436 50.6053 72.5436L60.221 72.5436C60.8831 72.5436 61.4197 73.0726 61.4197 73.7252L61.4197 81.5214L67.3867 81.5214L67.3867 31.1785ZM51.8041 74.9068L51.8041 81.5214L59.0225 81.5214L59.0225 74.9068L51.8041 74.9068ZM69.784 47.0114L69.784 81.5214L76.3949 81.5214L76.3949 47.0114L69.784 47.0114Z" stroke="#135CB7" stroke-width="0.716504" mask="url(#path-3-inside-1_601_395)"/>
</svg>
