<svg width="40" height="40" viewBox="0 0 40 40" fill="none" xmlns="http://www.w3.org/2000/svg">
<g clip-path="url(#clip0_617_348)">
<path d="M18.6195 25.9306L18.6195 10.4805C18.6195 9.83319 18.0949 9.30859 17.4476 9.30859C16.8007 9.30859 16.2758 9.83319 16.2758 10.4805L16.2758 25.9306C14.2158 26.4543 12.6875 28.3244 12.6875 30.5455C12.6875 33.1706 14.8228 35.3062 17.4476 35.3062C20.0724 35.3062 22.2081 33.1706 22.2081 30.5455C22.2081 28.3244 20.6794 26.4543 18.6195 25.9306ZM17.4476 32.9625C16.1152 32.9625 15.0312 31.8782 15.0312 30.5455C15.0312 29.2125 16.1152 28.1282 17.4476 28.1282C18.7803 28.1282 19.8643 29.2125 19.8643 30.5455C19.8643 31.8782 18.7803 32.9625 17.4476 32.9625Z" fill="white"/>
<path d="M23.2637 23.0978L23.2637 5.81079C23.2637 2.60339 20.6547 -0.00585938 17.4476 -0.00585938C14.2408 -0.00585938 11.6319 2.60339 11.6319 5.81079L11.6319 23.0978C9.34674 24.884 8 27.6229 8 30.5447C8 35.7552 12.2383 39.9941 17.4476 39.9941C22.6573 39.9941 26.8956 35.7552 26.8956 30.5447C26.8956 27.6229 25.5488 24.884 23.2637 23.0978ZM17.4476 37.6504C13.5304 37.6504 10.3437 34.4628 10.3437 30.5447C10.3437 28.1878 11.5095 25.9887 13.4623 24.6621C13.7834 24.4439 13.9756 24.0807 13.9756 23.6926L13.9756 5.81079C13.9756 3.89581 15.5333 2.33789 17.4476 2.33789C19.3623 2.33789 20.9199 3.89581 20.9199 5.81079L20.9199 23.6926C20.9199 24.0807 21.1122 24.4439 21.4332 24.6621C23.386 25.9887 24.5518 28.1878 24.5518 30.5447C24.5518 34.4628 21.3649 37.6504 17.4476 37.6504Z" fill="white"/>
<path d="M30.4131 18.7051L26.7812 18.7051C26.134 18.7051 25.6094 19.2297 25.6094 19.877C25.6094 20.5242 26.134 21.0488 26.7812 21.0488L30.4131 21.0488C31.0601 21.0488 31.585 20.5242 31.585 19.877C31.585 19.2297 31.0601 18.7051 30.4131 18.7051Z" fill="white"/>
<path d="M30.4131 14.0156L26.7812 14.0156C26.134 14.0156 25.6094 14.5402 25.6094 15.1875C25.6094 15.8348 26.134 16.3594 26.7812 16.3594L30.4131 16.3594C31.0601 16.3594 31.585 15.8348 31.585 15.1875C31.585 14.5402 31.0601 14.0156 30.4131 14.0156Z" fill="white"/>
<path d="M30.4131 9.32812L26.7812 9.32812C26.134 9.32812 25.6094 9.85272 25.6094 10.5C25.6094 11.1473 26.134 11.6719 26.7812 11.6719L30.4131 11.6719C31.0601 11.6719 31.585 11.1473 31.585 10.5C31.585 9.85272 31.0601 9.32812 30.4131 9.32812Z" fill="white"/>
<path d="M26.7812 6.98242L30.4131 6.98242C31.0601 6.98242 31.585 6.45782 31.585 5.81055C31.585 5.16357 31.0601 4.63867 30.4131 4.63867L26.7812 4.63867C26.134 4.63867 25.6094 5.16357 25.6094 5.81055C25.6094 6.45782 26.134 6.98242 26.7812 6.98242Z" fill="white"/>
</g>
<defs>
<clipPath id="clip0_617_348">
<rect width="40" height="40" fill="white" transform="translate(0 -0.00390625)"/>
</clipPath>
</defs>
</svg>
