<svg width="40" height="40" viewBox="0 0 40 40" fill="none" xmlns="http://www.w3.org/2000/svg">
<g clip-path="url(#clip0_617_791)">
<path d="M27.1248 23.5279L21.5477 19.3451L21.5477 10.8246C21.5477 9.96789 20.8552 9.27539 19.9984 9.27539C19.1417 9.27539 18.4492 9.96789 18.4492 10.8246L18.4492 20.1198C18.4492 20.6077 18.6785 21.0679 19.0689 21.3591L25.2656 26.0067C25.5445 26.2159 25.8698 26.3166 26.1936 26.3166C26.6661 26.3166 27.1309 26.1043 27.4345 25.6953C27.949 25.012 27.8095 24.0407 27.1248 23.5279Z" fill="white"/>
<path d="M20 -0.00390625C8.97133 -0.00390625 0 8.96742 0 19.9961C0 31.0248 8.97133 39.9961 20 39.9961C31.0287 39.9961 40 31.0248 40 19.9961C40 8.96742 31.0287 -0.00390625 20 -0.00390625ZM20 36.8977C10.6816 36.8977 3.09836 29.3145 3.09836 19.9961C3.09836 10.6777 10.6816 3.09445 20 3.09445C29.3199 3.09445 36.9016 10.6777 36.9016 19.9961C36.9016 29.3145 29.3184 36.8977 20 36.8977Z" fill="white"/>
</g>
<defs>
<clipPath id="clip0_617_791">
<rect width="40" height="40" fill="white" transform="translate(0 -0.00390625)"/>
</clipPath>
</defs>
</svg>
