<svg width="110" height="110" viewBox="0 0 110 110" fill="none" xmlns="http://www.w3.org/2000/svg">
<path d="M108.625 54.9999C108.625 84.6162 84.6163 108.625 55 108.625C25.3837 108.625 1.375 84.6162 1.375 54.9999C1.375 25.3837 25.3837 1.375 55 1.375C84.6162 1.375 108.625 25.3837 108.625 54.9999Z" fill="white" stroke="#135CB7" stroke-width="2.75"/>
<path d="M83.8711 54.9941C83.8711 52.4834 81.9565 50.4322 79.5141 50.1678C78.8457 46.5719 77.4171 43.1234 75.3425 40.1004C76.0412 39.2358 76.4403 38.181 76.4403 37.0539C76.4403 35.7502 75.9329 34.5256 75.0117 33.6045C73.2358 31.8285 70.4313 31.7329 68.5168 33.2737C65.4927 31.1981 62.0442 29.7686 58.4484 29.1001C58.182 26.6587 56.1318 24.7441 53.6211 24.7441C51.1103 24.7441 49.0602 26.6587 48.7947 29.1011C45.1989 29.7695 41.7504 31.1991 38.7264 33.2746C36.8128 31.7329 34.0074 31.8285 32.2314 33.6045C31.3103 34.5256 30.8028 35.7502 30.8028 37.0539C30.8028 38.181 31.2019 39.2368 31.9006 40.1004C29.8261 43.1234 28.3975 46.571 27.729 50.1678C25.2856 50.4322 23.3711 52.4824 23.3711 54.9941C23.3711 57.5058 25.2856 59.556 27.7281 59.8204C28.3965 63.4163 29.8251 66.8648 31.8996 69.8878C31.201 70.7524 30.8019 71.8072 30.8019 72.9343C30.8019 74.238 31.3093 75.4626 32.2304 76.3838C33.1819 77.3352 34.4309 77.8104 35.6809 77.8104C36.765 77.8104 37.8364 77.4308 38.7254 76.7146C41.7485 78.7891 45.1979 80.2187 48.7947 80.8871C49.0592 83.3295 51.1094 85.2441 53.6211 85.2441C56.1318 85.2441 58.182 83.3295 58.4474 80.8871C62.0442 80.2187 65.4927 78.7891 68.5168 76.7146C69.4057 77.4298 70.4772 77.8104 71.5613 77.8104C72.8103 77.8104 74.0603 77.3352 75.0117 76.3838C75.9329 75.4626 76.4403 74.238 76.4403 72.9343C76.4403 71.8072 76.0412 70.7514 75.3425 69.8878C77.4171 66.8648 78.8457 63.4163 79.5141 59.8204C81.9565 59.556 83.8711 57.5058 83.8711 54.9941ZM68.5051 69.1628L63.7373 65.1278C64.1188 64.4331 64.355 63.6475 64.355 62.8005C64.355 62.5039 64.3179 62.217 64.2671 61.936L74.922 57.6737C75.5387 58.6075 76.4735 59.2984 77.5644 59.635C76.9438 62.8454 75.6675 65.9251 73.831 68.6417C72.1351 67.7479 70.039 67.9206 68.5051 69.1628ZM39.1313 69.4848C38.8815 69.235 38.6103 69.0233 38.3253 68.8388L42.3095 56.8872C42.5008 56.9106 42.6891 56.9457 42.8872 56.9457C44.2494 56.9457 45.479 56.3817 46.365 55.4791L54.9414 61.0285C54.7257 61.5798 54.5969 62.1741 54.5969 62.8005C54.5969 63.1548 54.6389 63.4983 54.7111 63.831L39.8242 70.3806C39.627 70.0615 39.4036 69.7571 39.1313 69.4848ZM33.4102 68.6427C31.5737 65.9261 30.2974 62.8464 29.6768 59.636C31.6615 59.0232 33.1174 57.1965 33.1262 55.0146L38.3907 53.9617C38.8054 54.9424 39.5431 55.7426 40.4565 56.2724L36.5015 68.1372C35.4545 67.9587 34.3704 68.1363 33.4102 68.6427ZM35.6809 41.93C36.122 41.93 36.5581 41.849 36.9865 41.73L39.9891 48.1635C38.7986 49.0495 38.017 50.4537 38.0101 52.0462L32.7457 53.0991C32.1885 51.7808 31.0575 50.7786 29.6777 50.3522C30.2983 47.1408 31.5747 44.0612 33.4102 41.3455C34.1206 41.7202 34.8963 41.93 35.6809 41.93ZM39.1313 40.5034C39.3499 40.2848 39.5422 40.0467 39.7129 39.7969L52.7175 44.5257C52.6824 44.7599 52.6453 44.9931 52.6453 45.2361C52.6453 45.6273 52.7038 46.003 52.7907 46.368L46.7895 49.1695C45.8995 47.9732 44.4885 47.1877 42.8872 47.1877C42.4959 47.1877 42.1202 47.2462 41.7553 47.3331L38.7235 40.8361C38.8601 40.7269 39.0045 40.6303 39.1313 40.5034ZM68.1108 40.5034C69.0622 41.4548 70.3113 41.93 71.5613 41.93C72.3458 41.93 73.1216 41.7202 73.832 41.3455C75.6675 44.0612 76.9448 47.1418 77.5654 50.3522C76.5476 50.6664 75.6724 51.2919 75.0586 52.134L62.2726 46.3221C62.3516 45.9718 62.4033 45.6108 62.4033 45.2361C62.4033 44.7042 62.297 44.2027 62.1389 43.7226L68.0025 40.3717C68.0415 40.4136 68.0698 40.4634 68.1108 40.5034ZM59.9199 57.9664L59.0192 49.8565C60.0077 49.5355 60.8577 48.9197 61.4578 48.0961L74.2447 53.908C74.1647 54.2583 74.113 54.6194 74.113 54.9941C74.113 55.2907 74.1501 55.5776 74.2008 55.8596L63.546 60.121C62.7507 58.9168 61.4324 58.1059 59.9199 57.9664ZM57.0803 50.0702L57.981 58.1801C57.2247 58.426 56.5426 58.8329 55.9991 59.3872L47.4218 53.8368C47.6374 53.2874 47.7662 52.6932 47.7662 52.0667C47.7662 51.6754 47.7077 51.2997 47.6209 50.9348L53.6211 48.1342C54.4271 49.2154 55.6644 49.9394 57.0803 50.0702ZM58.262 31.0508C61.4714 31.6714 64.5501 32.9477 67.2668 34.7822C66.8979 35.477 66.6813 36.245 66.6813 37.0539C66.6813 37.6277 66.7954 38.181 66.9847 38.706L61.1709 42.0286C60.2761 41.0118 58.9812 40.357 57.5243 40.357C57.4531 40.357 57.3867 40.3746 57.3155 40.3785L55.723 34.0075C56.9369 33.422 57.86 32.3544 58.262 31.0508ZM53.6211 34.5022C53.6923 34.5022 53.7587 34.4846 53.8299 34.4807L55.4224 40.8518C54.5774 41.2587 53.8709 41.8968 53.381 42.6912L40.4682 37.9956C40.5277 37.6882 40.5599 37.374 40.5599 37.0539C40.5599 36.245 40.3433 35.477 39.9744 34.7822C42.6911 32.9468 45.7697 31.6714 48.9792 31.0508C49.5949 33.0414 51.4304 34.5022 53.6211 34.5022ZM48.9802 78.9374C45.7697 78.3168 42.6911 77.0405 39.9754 75.206C40.3443 74.5112 40.5609 73.7432 40.5609 72.9343C40.5609 72.6913 40.5258 72.4561 40.4916 72.22L55.5044 65.6138C55.9103 66.1846 56.4382 66.653 57.0462 67.0053L54.1997 75.5436C54.0075 75.5211 53.8192 75.486 53.6211 75.486C51.4304 75.486 49.5949 76.9468 48.9802 78.9374ZM56.0518 76.1593L58.8982 67.621C59.0895 67.6444 59.2778 67.6796 59.4759 67.6796C60.6127 67.6796 61.6461 67.2727 62.4765 66.6189L67.2638 70.6694C66.8979 71.3623 66.6822 72.1283 66.6822 72.9343C66.6822 73.7432 66.8989 74.5122 67.2677 75.2069C64.5521 77.0414 61.4734 78.3178 58.263 78.9384C57.8971 77.7548 57.1037 76.7702 56.0518 76.1593Z" fill="#135CB7"/>
</svg>
