<svg width="40" height="41" viewBox="0 0 40 41" fill="none" xmlns="http://www.w3.org/2000/svg">
<path d="M20 1.49414L5 6.96714L5 20.2057C5.0036 22.7895 5.61456 25.336 6.78327 27.6385C7.95199 29.9409 9.64549 31.9343 11.7262 33.4568L20 39.4941L28.2738 33.4568C30.3545 31.9343 32.048 29.9409 33.2167 27.6385C34.3854 25.336 34.9964 22.7895 35 20.2057L35 6.96714L20 1.49414ZM32.5 20.2057C32.4965 22.3939 31.979 24.5506 30.9893 26.5005C29.9996 28.4505 28.5656 30.139 26.8038 31.4289L20 36.3939L13.1962 31.4289C11.4344 30.139 10.0004 28.4505 9.01073 26.5005C8.02103 24.5506 7.50345 22.3939 7.5 20.2057L7.5 8.72292L20 4.16292L32.5 8.72292L32.5 20.2057Z" fill="white"/>
<path d="M14.6347 17.4219L12.8672 19.1894L18.4384 24.7606L27.1347 16.0644L25.3672 14.2969L18.4384 21.2256L14.6347 17.4219Z" fill="white"/>
</svg>
