<svg width="40" height="41" viewBox="0 0 40 41" fill="none" xmlns="http://www.w3.org/2000/svg">
<path d="M14.3824 6.37651L20.9706 6.37651C21.4904 6.37651 21.9118 6.79789 21.9118 7.3177L21.9118 13.9059C21.9118 14.4257 21.4904 14.8471 20.9706 14.8471L14.3824 14.8471C13.8626 14.8471 13.4412 14.4257 13.4412 13.9059L13.4412 7.31763C13.4412 6.79789 13.8626 6.37651 14.3824 6.37651ZM15.3235 8.25882L15.3235 12.9647L20.0294 12.9647L20.0294 8.25882L15.3235 8.25882ZM28.9706 4.49414L35.5588 4.49414C36.0786 4.49414 36.5 4.91551 36.5 5.43533L36.5 12.0236C36.5 12.5434 36.0786 12.9647 35.5588 12.9647L28.9706 12.9647C28.4508 12.9647 28.0294 12.5434 28.0294 12.0236L28.0294 5.43533C28.0294 4.91551 28.4508 4.49414 28.9706 4.49414ZM29.9118 11.0824L34.6176 11.0824L34.6176 6.37651L29.9118 6.37651L29.9118 11.0824ZM25.6765 17.2L32.2647 17.2C32.7846 17.2 33.2059 17.6214 33.2059 18.1412L33.2059 24.7294C33.2059 25.2492 32.7846 25.6706 32.2647 25.6706L25.6765 25.6706C25.1567 25.6706 24.7353 25.2492 24.7353 24.7294L24.7353 18.1412C24.7353 17.6214 25.1567 17.2 25.6765 17.2ZM26.6176 23.7882L31.3235 23.7882L31.3235 19.0824L26.6176 19.0824L26.6176 23.7882ZM25.2059 28.0235C25.7257 28.0235 26.1471 28.4449 26.1471 28.9647L26.1471 35.553C26.1471 36.0728 25.7257 36.4941 25.2059 36.4941L5.44119 36.4941C4.92138 36.4941 4.5 36.0728 4.5 35.553L4.5 15.7882C4.5 15.2684 4.92138 14.8471 5.44119 14.8471L12.0294 14.8471C12.5493 14.8471 12.9706 15.2684 12.9706 15.7882L12.9706 21.4353L18.6177 21.4353C19.1375 21.4353 19.5589 21.8567 19.5589 22.3765L19.5589 28.0235L25.2059 28.0235ZM6.38237 16.7294L6.38237 34.6118L24.2648 34.6118L24.2648 29.9059L18.6177 29.9059C18.0979 29.9059 17.6765 29.4845 17.6765 28.9647L17.6765 23.3177L12.0294 23.3177C11.5096 23.3177 11.0882 22.8963 11.0882 22.3765L11.0882 16.7294L6.38237 16.7294Z" fill="white"/>
</svg>
