<svg width="40" height="40" viewBox="0 0 40 40" fill="none" xmlns="http://www.w3.org/2000/svg">
<g clip-path="url(#clip0_617_172)">
<g clip-path="url(#clip1_617_172)">
<path d="M32.7318 30.7227L32.9269 30.9178L33.1018 30.7044C35.5727 27.6912 36.9167 23.9466 36.9167 19.9941C36.9167 10.6662 29.3279 3.07748 20 3.07748C16.0476 3.07748 12.3029 4.42142 9.28972 6.8923L9.07634 7.06727L9.27146 7.26239L32.7318 30.7227ZM33.9683 33.9625L34.1451 34.1392L33.9683 33.9625C30.24 37.6911 25.2805 39.7441 20 39.7441C9.10983 39.7441 0.25 30.8843 0.249999 19.9941C0.249999 14.7137 2.30298 9.75491 6.03168 6.02581C9.75996 2.29713 14.7195 0.24414 20 0.24414C30.8902 0.244139 39.75 9.10478 39.75 19.9941C39.75 25.2746 37.697 30.2342 33.9683 33.9625ZM7.26824 9.26642L7.07315 9.07133L6.89818 9.28465C4.42727 12.2971 3.08333 16.0425 3.08333 19.9941C3.08333 29.3221 10.6721 36.9108 20 36.9108C23.9524 36.9108 27.6971 35.5669 30.7103 33.096L30.9237 32.921L30.7285 32.7259L7.26824 9.26642Z" fill="white" stroke="#135CB7" stroke-width="0.5"/>
</g>
<g clip-path="url(#clip2_617_172)">
<path d="M32.4906 16.3878L33.4973 14.7305C33.7755 14.2725 33.63 13.6767 33.172 13.3986L19.9137 5.34515C19.4557 5.06692 18.86 5.21241 18.5817 5.67047L17.5751 7.32776C17.2969 7.78581 17.4424 8.38151 17.9004 8.65974L31.1587 16.7131C31.6166 16.9914 32.2124 16.8459 32.4906 16.3878Z" fill="white"/>
<path d="M21.4164 34.6183L22.4231 32.961C22.7013 32.503 22.5558 31.9072 22.0977 31.6289L8.83945 23.5755C8.38156 23.2974 7.78575 23.4429 7.5075 23.9008L6.50088 25.5583C6.22263 26.0162 6.36815 26.612 6.82619 26.8902L20.0845 34.9436C20.5425 35.2219 21.1382 35.0764 21.4164 34.6183Z" fill="white"/>
<path d="M16.7148 12.4785L17.7213 10.8215L29.3206 17.8671L28.3141 19.5242L16.7148 12.4785Z" fill="white"/>
<path d="M14.6992 15.793L15.7057 14.1359L27.3049 21.1815L26.2984 22.8386L14.6992 15.793Z" fill="white"/>
<path d="M12.6875 19.1074L13.694 17.4504L25.2932 24.496L24.2867 26.1531L12.6875 19.1074Z" fill="white"/>
<path d="M10.6719 22.4219L11.6784 20.7648L23.2775 27.8104L22.271 29.4675L10.6719 22.4219Z" fill="white"/>
</g>
</g>
<defs>
<clipPath id="clip0_617_172">
<rect width="40" height="40" fill="white" transform="translate(0 -0.00585938)"/>
</clipPath>
<clipPath id="clip1_617_172">
<rect width="40" height="40" fill="white" transform="translate(0 -0.00585938)"/>
</clipPath>
<clipPath id="clip2_617_172">
<rect width="33.0933" height="33.0938" fill="white" transform="matrix(0.971445 -0.237264 0.237257 0.971447 0 7.99414)"/>
</clipPath>
</defs>
</svg>
