<svg width="1284" height="183" viewBox="0 0 1284 183" fill="none" xmlns="http://www.w3.org/2000/svg">
<path d="M1139.52 0.128906H1169.68V84.9834L1241.06 0.128906H1277.81L1200.97 89.5428L1283.02 182.503H1245.03L1169.68 97.2683V182.503H1139.52V0.128906Z" fill="white"/>
<path d="M994.051 182.503V0.128906H1109.74V28.7515H1024.09V73.7117H1094.85V102.334H1024.09V153.88H1109.74V182.503H994.051Z" fill="white"/>
<path d="M884.201 182.503V28.7515H830.947V0.128906H967.371V28.7515H914.366V182.503H884.201Z" fill="white"/>
<path d="M836.701 182.374H805.17L792.509 142.86H722.745L710.083 182.374H678.553L737.765 0H777.612L836.701 182.374ZM783.447 114.364L757.627 33.4352L731.807 114.364H783.447Z" fill="white"/>
<path d="M512.299 182.503V0.128906H542.339V76.8779H626.875V0.128906H656.916V182.503H626.875V105.5H542.339V182.503H512.299Z" fill="white"/>
<path d="M376.766 182.503V0.128906H492.459V28.7515H406.93V182.503H376.766Z" fill="white"/>
<path d="M355.191 182.374H323.661L310.999 142.86H241.235L228.573 182.374H197.043L256.255 0H296.103L355.191 182.374ZM301.937 114.364L276.117 33.4352L250.297 114.364H301.937Z" fill="white"/>
<path d="M0 182.503V0.128906H30.0406L87.7634 122.851L145.486 0.128906H175.527V182.503H145.486V61.4268L100.425 157.426H75.1016L30.1648 61.4268V182.503H0Z" fill="white"/>
</svg>
